<?xml version="1.0" encoding="UTF-8" standalone="no"?>
<!-- Created with Inkscape (http://www.inkscape.org/) -->

<svg
   width="512"
   height="512"
   viewBox="0 0 135.46666 135.46667"
   version="1.1"
   id="svg5"
   xml:space="preserve"
   inkscape:version="1.2 (dc2aedaf03, 2022-05-15)"
   sodipodi:docname="Rowdy.svg"
   xmlns:inkscape="http://www.inkscape.org/namespaces/inkscape"
   xmlns:sodipodi="http://sodipodi.sourceforge.net/DTD/sodipodi-0.dtd"
   xmlns:xlink="http://www.w3.org/1999/xlink"
   xmlns="http://www.w3.org/2000/svg"
   xmlns:svg="http://www.w3.org/2000/svg"><sodipodi:namedview
     id="namedview7"
     pagecolor="#ffffff"
     bordercolor="#000000"
     borderopacity="0.25"
     inkscape:showpageshadow="2"
     inkscape:pageopacity="0"
     inkscape:pagecheckerboard="0"
     inkscape:deskcolor="#d1d1d1"
     inkscape:document-units="mm"
     showgrid="false"
     inkscape:zoom="0.25"
     inkscape:cx="-178"
     inkscape:cy="496"
     inkscape:window-width="1366"
     inkscape:window-height="697"
     inkscape:window-x="-8"
     inkscape:window-y="-8"
     inkscape:window-maximized="1"
     inkscape:current-layer="layer1" /><defs
     id="defs2"><linearGradient
       inkscape:collect="always"
       id="linearGradient6775"><stop
         style="stop-color:#273839;stop-opacity:0.5;"
         offset="0"
         id="stop6771" /><stop
         style="stop-color:#273839;stop-opacity:0;"
         offset="1"
         id="stop6773" /></linearGradient><linearGradient
       inkscape:collect="always"
       id="linearGradient6767"><stop
         style="stop-color:#273839;stop-opacity:0.5;"
         offset="0"
         id="stop6763" /><stop
         style="stop-color:#273839;stop-opacity:0;"
         offset="1"
         id="stop6765" /></linearGradient><linearGradient
       inkscape:collect="always"
       id="linearGradient6755"><stop
         style="stop-color:#273839;stop-opacity:0.50196081;"
         offset="0"
         id="stop6751" /><stop
         style="stop-color:#15484b;stop-opacity:0;"
         offset="1"
         id="stop6753" /></linearGradient><linearGradient
       inkscape:collect="always"
       id="linearGradient6747"><stop
         style="stop-color:#273839;stop-opacity:0.5;"
         offset="0"
         id="stop6743" /><stop
         style="stop-color:#273839;stop-opacity:0;"
         offset="1"
         id="stop6745" /></linearGradient><linearGradient
       inkscape:collect="always"
       id="linearGradient4457"><stop
         style="stop-color:#273839;stop-opacity:0.5;"
         offset="0"
         id="stop4453" /><stop
         style="stop-color:#273839;stop-opacity:0;"
         offset="1"
         id="stop4455" /></linearGradient><linearGradient
       inkscape:collect="always"
       id="linearGradient4447"><stop
         style="stop-color:#273839;stop-opacity:0.5;"
         offset="0"
         id="stop4443" /><stop
         style="stop-color:#273839;stop-opacity:0;"
         offset="1"
         id="stop4445" /></linearGradient><linearGradient
       inkscape:collect="always"
       id="linearGradient4437"><stop
         style="stop-color:#27393a;stop-opacity:0.5;"
         offset="0"
         id="stop4433" /><stop
         style="stop-color:#273839;stop-opacity:0;"
         offset="1"
         id="stop4435" /></linearGradient><linearGradient
       inkscape:collect="always"
       id="linearGradient4429"><stop
         style="stop-color:#273839;stop-opacity:0.5;"
         offset="0"
         id="stop4425" /><stop
         style="stop-color:#273839;stop-opacity:0;"
         offset="1"
         id="stop4427" /></linearGradient><radialGradient
       inkscape:collect="always"
       xlink:href="#linearGradient4429"
       id="radialGradient4431"
       cx="76.226868"
       cy="138.27002"
       fx="76.226868"
       fy="138.27002"
       r="1.6474462"
       gradientTransform="matrix(2.7499227,-0.13001318,0.20549705,4.3464902,-161.80521,-451.21343)"
       gradientUnits="userSpaceOnUse" /><radialGradient
       inkscape:collect="always"
       xlink:href="#linearGradient4437"
       id="radialGradient4439"
       cx="105.50486"
       cy="136.38011"
       fx="105.50486"
       fy="136.38011"
       r="16.463802"
       gradientTransform="matrix(1.1842342,-1.2315416,1.0498692,1.0095404,-160.18298,124.61702)"
       gradientUnits="userSpaceOnUse" /><radialGradient
       inkscape:collect="always"
       xlink:href="#linearGradient4447"
       id="radialGradient4449"
       cx="93.064758"
       cy="156.68251"
       fx="93.064758"
       fy="156.68251"
       r="30.916401"
       gradientTransform="matrix(0.60293782,-0.54995689,0.47970913,0.52592258,-23.712969,102.7381)"
       gradientUnits="userSpaceOnUse" /><radialGradient
       inkscape:collect="always"
       xlink:href="#linearGradient4457"
       id="radialGradient4459"
       cx="84.045654"
       cy="137.45973"
       fx="84.045654"
       fy="137.45973"
       r="3.3636701"
       gradientTransform="matrix(0.87060932,-0.52432329,1.4128233,2.3459135,-183.33158,-140.53978)"
       gradientUnits="userSpaceOnUse" /><radialGradient
       inkscape:collect="always"
       xlink:href="#linearGradient6747"
       id="radialGradient6749"
       cx="132.86707"
       cy="137.51031"
       fx="132.86707"
       fy="137.51031"
       r="3.2350852"
       gradientTransform="matrix(0.99672402,0.08087785,-0.20446448,2.5197831,28.551245,-219.22436)"
       gradientUnits="userSpaceOnUse" /><radialGradient
       inkscape:collect="always"
       xlink:href="#linearGradient6755"
       id="radialGradient6757"
       cx="126.8659"
       cy="131.42526"
       fx="126.8659"
       fy="131.42526"
       r="3.5292647"
       gradientTransform="matrix(0.99682552,0.0796171,-0.1311947,1.6425896,17.645032,-94.34172)"
       gradientUnits="userSpaceOnUse" /><radialGradient
       inkscape:collect="always"
       xlink:href="#linearGradient6767"
       id="radialGradient6769"
       cx="108.71984"
       cy="112.24194"
       fx="108.71984"
       fy="112.24194"
       r="32.600201"
       gradientTransform="matrix(-0.51566733,0.55100684,-0.55005961,-0.51478082,226.52286,131.04212)"
       gradientUnits="userSpaceOnUse" /><radialGradient
       inkscape:collect="always"
       xlink:href="#linearGradient6775"
       id="radialGradient6777"
       cx="106.54557"
       cy="128.04886"
       fx="106.54557"
       fy="128.04886"
       r="19.59754"
       gradientTransform="matrix(-0.64388374,0.64902139,-0.65560073,-0.65041098,261.18953,147.92172)"
       gradientUnits="userSpaceOnUse" /></defs><g
     inkscape:label="Layer 1"
     inkscape:groupmode="layer"
     id="layer1"><g
       id="g6822"
       transform="matrix(1.9396649,0,0,1.9396649,-140.8456,-187.19877)"><path
         style="fill:url(#radialGradient6757);fill-opacity:1;stroke:none;stroke-width:0.529167;stroke-linecap:square;stroke-opacity:1"
         d="m 123.34881,127.35925 c -0.28137,4.1123 4.38339,8.64126 7.01146,1.48829 0.59087,-4.62218 -6.50997,-5.08051 -7.01146,-1.48829 z"
         id="path6715-5"
         sodipodi:nodetypes="ccc" /><path
         style="fill:#273839;fill-opacity:0.5;stroke:none;stroke-width:0.529167;stroke-linecap:square;stroke-opacity:1"
         d="m 121.84149,138.81979 0.23387,3.32083 c 2.49285,1.46418 4.66296,1.15327 6.40778,-1.49672 1.16462,-4.25252 -2.45044,-7.9551 -5.7062,-5.05139 z"
         id="path6659"
         sodipodi:nodetypes="ccccc" /><path
         style="fill:#273839;fill-opacity:1;stroke:none;stroke-width:0.529167;stroke-linecap:square;stroke-opacity:1"
         d="m 113.38131,148.63138 c -1.86684,0.1586 -1.98679,-2.39078 0.21047,-2.82972 0.56588,0.51291 1.08621,0.63105 1.5201,0 2.54795,1.1812 3.29987,6.13646 4.12062,9.5159 h -4.89479 l -0.24357,-5.6224 c -0.0934,-0.67072 -0.23961,-0.92724 -0.71283,-1.06378 z"
         id="path3640-2"
         sodipodi:nodetypes="ccccccc" /><path
         id="path2764"
         style="fill:#273839;fill-opacity:1;stroke:none;stroke-width:0.618519;stroke-linecap:square;stroke-opacity:1"
         d="m 107.98514,129.37195 a 4.0574856,4.700603 0 0 0 -4.05763,4.70049 4.0574856,4.700603 0 0 0 4.05763,4.70048 4.0574856,4.700603 0 0 0 4.05763,-4.70048 4.0574856,4.700603 0 0 0 -4.05763,-4.70049 z m -1.53169,1.97714 a 1.480013,1.6123047 0 0 1 1.48001,1.6123 1.480013,1.6123047 0 0 1 -1.48001,1.61231 1.480013,1.6123047 0 0 1 -1.48001,-1.61231 1.480013,1.6123047 0 0 1 1.48001,-1.6123 z m 3.04013,3.86901 a 0.93544334,0.97052246 0 0 1 0.93534,0.971 0.93544334,0.97052246 0 0 1 -0.93534,0.97049 0.93544334,0.97052246 0 0 1 -0.93535,-0.97049 0.93544334,0.97052246 0 0 1 0.93535,-0.971 z" /><path
         style="fill:#273839;fill-opacity:0.501961;stroke:none;stroke-width:0.529167;stroke-linecap:square"
         d="m 80.49734,151.875 -0.646276,-1.14894 0.574466,-1.7234 3.087767,0.28723 2.728724,4.38032 c -2.188754,0.0406 -4.130142,-0.49598 -5.744681,-1.79521 z"
         id="path356"
         sodipodi:nodetypes="cccccc" /><path
         id="path454"
         style="fill:#273839;fill-opacity:1;stroke:none;stroke-width:0.529167;stroke-linecap:square;stroke-opacity:1"
         d="M 74.250248,105.77391 74.75306,151.013 c 20.105653,7.73902 41.89834,8.45318 66.06367,5.2e-4 v -45.23961 c -19.85312,6.87291 -44.377655,7.50032 -66.566482,0 z m 1.220598,1.14876 c 20.749417,6.86559 43.833404,7.80962 64.196594,0 l 1.07746,44.01902 c -22.8346,8.23669 -44.747425,7.20663 -65.920527,0.0718 z"
         sodipodi:nodetypes="cccccccccc" /><path
         style="fill:#273839;fill-opacity:0.5;stroke:none;stroke-width:0.529167;stroke-linecap:square;stroke-opacity:1"
         d="m 74.741923,149.20321 h 2.525696 l 2.666013,3.55469 -5.191709,-1.77735 z"
         id="path1124" /><path
         style="fill:#273839;fill-opacity:0.501961;stroke:none;stroke-width:0.529167;stroke-linecap:square;stroke-opacity:1"
         d="m 75.209645,146.95815 1.730568,0.56126 0.514496,1.26285 1.96443,-1.12253 c -0.172194,-3.77115 -2.380148,-5.12484 -4.490127,-6.59488 z"
         id="path1180"
         sodipodi:nodetypes="cccccc" /><path
         style="fill:url(#radialGradient4439);fill-opacity:1;stroke:none;stroke-width:0.529167;stroke-linecap:square;stroke-opacity:1"
         d="m 100.27953,127.22 -9.728616,-17.492 c 11.652316,3.26951 22.769196,3.95106 32.927606,0 l -8.41899,17.492 z"
         id="path1184"
         sodipodi:nodetypes="ccccc" /><path
         style="fill:url(#radialGradient4449);fill-opacity:1;stroke:none;stroke-width:0.529167;stroke-linecap:square;stroke-opacity:1"
         d="m 76.61281,109.728 22.848488,17.492 17.004152,2.9e-4 21.98016,-17.49229 c -20.85506,2.87386 -40.780881,1.81985 -61.8328,0 z"
         id="path1182"
         sodipodi:nodetypes="ccccc" /><path
         style="fill:#273839;fill-opacity:1;stroke:none;stroke-width:0.529167;stroke-linecap:square;stroke-opacity:1"
         d="m 92.047625,131.757 v 1.12273 H 95.135 c -0.02268,2.15796 0.06568,4.28419 0.654397,6.26747 0.725951,0.58367 1.555802,1.06344 2.806329,1.12253 l -0.654809,-7.29646 h -1.637025 v -1.35639 h 1.730569 l -0.04677,-4.25627 c -0.96497,0.40205 -2.221363,1.26248 -2.666013,2.75956 L 95.135,131.757 Z"
         id="path1914"
         sodipodi:nodetypes="ccccccccccccc" /><path
         style="fill:#273839;fill-opacity:1;stroke:none;stroke-width:0.529167;stroke-linecap:square;stroke-opacity:1"
         d="m 97.035936,127.06614 0.992188,-0.19843 4.167186,-3.24115 v -3.10885 h -0.92604 v 2.18281 c -3.624586,1.53719 -3.887373,2.94986 -4.233334,4.36562 z"
         id="path2696"
         sodipodi:nodetypes="ccccccc" /><path
         id="path2698"
         style="fill:#273839;fill-opacity:0.997015;stroke:none;stroke-width:0.529167;stroke-linecap:square;stroke-opacity:1"
         d="m 108.60836,125.64349 c -3.07429,-0.01 -6.1739,0.53731 -9.290391,1.45573 l 0.09922,13.72526 c 2.184581,1.39404 16.038611,1.26272 17.264061,0 v -13.72526 c -2.66736,-1.00427 -5.36028,-1.44693 -8.07289,-1.45573 z m -0.77773,1.73375 c 1.17386,-0.0129 2.30695,0.17049 2.89749,0.51573 1.07687,0.0349 4.19222,0.0535 1.07487,2.03398 -0.29772,0.80828 1.01938,1.75849 1.27331,1.27331 3.45973,-4.95056 4.39562,8.77576 0.48886,7.17992 -1.00693,-1.07691 -3.27045,-0.4538 -1.71256,0.98857 -0.14173,1.45051 -6.62659,2.46354 -7.4259,0 1.07046,-1.06199 -0.69021,-2.86935 -1.603,-0.92552 -4.373223,-0.57778 -3.523416,-9.68498 -1.09141,-8.13594 1.83256,1.54452 1.83724,-0.28588 1.32292,-0.92604 -0.61665,-1.00158 0.10494,-1.67689 1.91823,-1.48828 0.75385,-0.3403 1.82143,-0.50439 2.85719,-0.51573 z" /><ellipse
         style="fill:#273839;fill-opacity:1;stroke:none;stroke-width:0.529167;stroke-linecap:square;stroke-opacity:1"
         id="path2755"
         cx="106.56921"
         cy="132.93658"
         rx="0.22324218"
         ry="0.44648436" /><ellipse
         style="fill:#273839;fill-opacity:1;stroke:none;stroke-width:0.529167;stroke-linecap:square;stroke-opacity:1"
         id="path2760"
         cx="109.20132"
         cy="136.01347"
         rx="0.22216779"
         ry="0.21047476" /><path
         style="fill:#273839;fill-opacity:0.979104;stroke:none;stroke-width:0.529167;stroke-linecap:square;stroke-opacity:1"
         d="m 101.28513,136.36425 c 0.67145,1.44198 1.70312,0.99801 1.09914,-0.46772 -0.54151,-1.59944 -0.63958,-2.69316 -0.50062,-3.45009 0.5041,-2.74591 -2.760487,-0.21762 -0.59852,3.91781 z"
         id="path2768"
         sodipodi:nodetypes="ccsc" /><path
         style="fill:#273839;fill-opacity:0.979104;stroke:none;stroke-width:0.529167;stroke-linecap:square;stroke-opacity:1"
         d="m 113.82007,135.47558 c -0.70075,3.93237 1.79546,1.98901 1.44994,-0.60804 -0.17409,-1.39163 -0.0144,-3.75415 -1.12254,-3.29743 -1.23227,0.59366 -0.39662,2.48737 -0.3274,3.90547 z"
         id="path2792"
         sodipodi:nodetypes="cccc" /><ellipse
         style="fill:#273839;fill-opacity:1;stroke:none;stroke-width:0.529167;stroke-linecap:square;stroke-opacity:1"
         id="path2794"
         cx="108.1319"
         cy="143.15611"
         rx="2.5300782"
         ry="0.41341144" /><path
         style="fill:#273839;fill-opacity:1;stroke:none;stroke-width:0.529167;stroke-linecap:square;stroke-opacity:1"
         d="m 104.775,142.57734 c -0.24407,1.95252 6.48074,2.53969 6.54844,0 1.93142,0.8379 2.22051,1.99514 -0.33073,3.70466 v 2.74456 c -1.93657,0.79418 -3.92498,0.88852 -5.9862,0 V 146.282 c -0.93009,-0.83366 -3.2165,-2.64229 -0.23151,-3.70466 z"
         id="path2796"
         sodipodi:nodetypes="ccccccc" /><path
         style="fill:#273839;fill-opacity:1;stroke:none;stroke-width:0.529167;stroke-linecap:square;stroke-opacity:1"
         d="m 102.87538,148.52502 c 1.86684,0.1586 1.98679,-2.39078 -0.21047,-2.82972 -0.56588,0.51291 -1.08621,0.63105 -1.5201,0 -2.54795,1.1812 -2.130566,6.13646 -2.951322,9.5159 h 4.894792 l 0.0331,-5.6224 c -0.49121,-0.0393 -1.04663,-1.11433 -0.246,-1.06378 z"
         id="path3640"
         sodipodi:nodetypes="ccccccc" /><path
         style="fill:#273839;fill-opacity:1;stroke:none;stroke-width:0.529167;stroke-linecap:square;stroke-opacity:1"
         d="m 104.67578,149.19193 1.28984,1.32291 v 2.64584 c -0.85953,1.13647 -1.57638,0.93184 -2.21588,0 0.25082,-1.34739 -0.34131,-3.05142 0.92604,-3.96875 z"
         id="path3664"
         sodipodi:nodetypes="ccccc" /><path
         style="fill:#273839;fill-opacity:1;stroke:none;stroke-width:0.529167;stroke-linecap:square;stroke-opacity:1"
         d="m 111.35651,149.15885 c -0.60295,1.33849 -0.38049,2.62196 -0.3638,3.91914 0.55723,0.5359 1.2178,0.47764 1.9513,0 -0.1033,-1.57821 0.45483,-3.57861 -1.5875,-3.91914 z"
         id="path3666"
         sodipodi:nodetypes="cccc" /><path
         style="fill:#273839;fill-opacity:1;stroke:none;stroke-width:0.529167;stroke-linecap:square;stroke-opacity:1"
         d="m 117.40885,127.52917 0.52917,12.83229 c 1.29082,-0.42833 2.41178,-1.13975 3.175,-2.4474 h 1.85208 v -1.25677 h -2.18281 l -0.39687,-7.40833 c -0.8556,-0.87377 -1.69247,-1.78873 -2.97657,-1.71979 z"
         id="path3668"
         sodipodi:nodetypes="cccccccc" /><path
         style="fill:#273839;fill-opacity:0.5;stroke:none;stroke-width:0.529167;stroke-linecap:square;stroke-opacity:1"
         d="m 81.028645,146.31458 0.396875,-0.99219 -1.653646,-1.85208 c 0.795813,-4.65606 5.636569,-2.55032 6.191904,0.29887 0.633466,2.79596 -1.845184,5.43584 -4.935133,2.5454 z"
         id="path4396"
         sodipodi:nodetypes="ccccc" /><path
         style="fill:#273839;fill-opacity:0.5;stroke:none;stroke-width:0.529167;stroke-linecap:square;stroke-opacity:1"
         d="m 86.949459,151.16764 1.917657,2.71279 c 6.172761,1.29102 5.701761,-3.76513 2.666014,-5.84652 -1.835778,-1.97323 -6.551013,-1.03816 -4.583671,3.13373 z"
         id="path4398"
         sodipodi:nodetypes="cccc" /><path
         style="fill:url(#radialGradient4431);fill-opacity:1;stroke:none;stroke-width:0.529167;stroke-linecap:square;stroke-opacity:1"
         d="m 77.952864,140.95677 -2.083594,-1.35599 -0.165365,-6.38307 c 2.359069,1.8612 4.711171,3.72551 2.248959,7.73906 z"
         id="path4400"
         sodipodi:nodetypes="cccc" /><path
         style="fill:#273839;fill-opacity:1;stroke:none;stroke-width:0.529167;stroke-linecap:square;stroke-opacity:1"
         d="m 115.76111,125.8639 2.94665,1.44994 c -0.15845,-2.12022 -2.05666,-3.56386 -4.44336,-4.81753 v -2.01121 h -1.26284 v 3.04019 z"
         id="path4441"
         sodipodi:nodetypes="ccccccc" /><path
         style="fill:url(#radialGradient4459);fill-opacity:1;stroke:none;stroke-width:0.529167;stroke-linecap:square;stroke-opacity:1"
         d="m 79.933632,133.65147 1.005602,3.39098 2.198293,1.37978 h 1.894272 l 1.61364,-2.10475 c 0.372778,-5.11514 -6.081758,-8.11168 -6.711807,-2.66601 z"
         id="path4451"
         sodipodi:nodetypes="cccccc" /><path
         style="fill:#273839;fill-opacity:0.501961;stroke:none;stroke-width:0.529167;stroke-linecap:square;stroke-opacity:1"
         d="m 91.53313,137.93112 c -2.031814,0.12526 -4.460686,-0.94066 -4.95785,3.78855 l 0.654812,2.15152 3.461139,1.54348 c 1.364199,0.48078 2.420416,-0.98899 3.414368,-2.85311 0.099,-2.14128 -0.676548,-3.73598 -2.572469,-4.63044 z"
         id="path4461"
         sodipodi:nodetypes="cccccc" /><path
         style="fill:#273839;fill-opacity:0.501961;stroke:none;stroke-width:0.529167;stroke-linecap:square;stroke-opacity:1"
         d="m 97.660284,151.16764 c -0.912942,1.73358 -1.588292,0.76192 -1.917657,0 -1.792835,-2.34004 -2.550955,-4.38907 -0.37418,-5.61266 1.896487,-1.58242 4.249962,-0.2867 2.99342,1.54349 -0.474658,1.27612 -0.956636,2.54981 -0.701583,4.06917 z"
         id="path5189"
         sodipodi:nodetypes="ccccc" /><path
         style="fill:#273839;fill-opacity:0.501961;stroke:none;stroke-width:0.529167;stroke-linecap:square;stroke-opacity:1"
         d="m 93.993228,155.17812 c 1.029984,-0.85519 1.882727,-3.1283 3.40651,-0.0331 z"
         id="path5917"
         sodipodi:nodetypes="ccc" /><path
         style="fill:#273839;fill-opacity:0.501961;stroke:none;stroke-width:0.529167;stroke-linecap:square;stroke-opacity:1"
         d="m 103.28672,156.6664 c 1.2306,-0.92461 2.43645,-1.97297 3.83646,-2.05052 l 0.49609,-2.48047 c 0.78428,0.61744 2.90333,2.4979 1.28984,4.10105 -0.77975,1.23769 -3.72477,0.31011 -5.62239,0.42994 z"
         id="path5919"
         sodipodi:nodetypes="ccccc" /><path
         style="fill:#273839;fill-opacity:1;stroke:none;stroke-width:0.529167;stroke-linecap:square;stroke-opacity:1"
         d="m 114.40472,144.66631 -0.37418,-1.73057 3.695,-0.8419 c 2.49957,-0.99888 2.71742,1.08305 1.96443,2.15152 l -2.0112,2.15152 c -0.30514,-1.36307 -1.04917,-2.28724 -3.27405,-1.73057 z"
         id="path5921"
         sodipodi:nodetypes="cccccc" /><path
         style="fill:#273839;fill-opacity:0.5;stroke:none;stroke-width:0.529167;stroke-linecap:square;stroke-opacity:1"
         d="m 124.78411,151.97005 c -6.82985,0.6924 -5.15537,-4.89702 -4.20026,-6.18464 1.61322,-1.8007 6.94125,-2.03429 6.18464,3.175 -1.07359,0.79715 -1.95878,1.6885 -1.98438,3.00964 z"
         id="path6649"
         sodipodi:nodetypes="cccc" /><path
         style="fill:#273839;fill-opacity:0.5;stroke:none;stroke-width:0.529167;stroke-linecap:square;stroke-opacity:1"
         d="m 120.02161,153.39219 v 1.71979 l 2.94349,-0.0331 c 0.36708,-0.4132 0.47038,-0.93192 0.39688,-1.52135 z"
         id="path6651"
         sodipodi:nodetypes="ccccc" /><path
         style="fill:#273839;fill-opacity:0.5;stroke:none;stroke-width:0.529167;stroke-linecap:square;stroke-opacity:1"
         d="m 127.62838,153.52448 c -3.03281,2.24851 -2.66939,-0.43292 -1.12448,-1.15755 1.12923,-2.32919 2.7183,-2.81902 4.72943,-1.62058 1.70894,3.29513 -1.86135,2.29321 -3.60495,2.77813 z"
         id="path6653"
         sodipodi:nodetypes="cccc" /><path
         style="fill:#273839;fill-opacity:0.5;stroke:none;stroke-width:0.529167;stroke-linecap:square;stroke-opacity:1"
         d="m 134.47448,147.57135 c -3.09237,2.58001 -0.0936,5.66615 2.94349,2.34818 3.67684,-2.06201 -0.70135,-6.79938 -2.94349,-2.34818 z"
         id="path6655"
         sodipodi:nodetypes="ccc" /><path
         style="fill:#273839;fill-opacity:0.5;stroke:none;stroke-width:0.529167;stroke-linecap:square;stroke-opacity:1"
         d="m 129.61276,141.84974 c -3.39554,5.13533 1.0026,8.78778 4.56406,3.73724 1.6574,-4.63759 -2.86572,-5.92844 -4.56406,-3.73724 z"
         id="path6657"
         sodipodi:nodetypes="ccc" /><path
         style="fill:url(#radialGradient6749);fill-opacity:1;stroke:none;stroke-width:0.529167;stroke-linecap:square;stroke-opacity:1"
         d="m 129.97656,133.97838 c -0.28137,4.1123 3.78808,8.3436 6.41615,1.19063 0.59087,-4.62218 -5.51778,-5.47738 -6.41615,-1.19063 z"
         id="path6715"
         sodipodi:nodetypes="ccc" /><path
         style="fill:#273839;fill-opacity:0.5;stroke:none;stroke-width:0.529167;stroke-linecap:square;stroke-opacity:1"
         d="m 139.61492,134.65707 c 0,-0.18709 -0.18709,-7.71741 -0.18709,-7.71741 -1.47658,2.97746 -2.96157,5.95712 0.18709,7.71741 z"
         id="path6739"
         sodipodi:nodetypes="ccc" /><path
         style="fill:#273839;fill-opacity:0.5;stroke:none;stroke-width:0.529167;stroke-linecap:square;stroke-opacity:1"
         d="m 139.66169,142.8422 -0.0935,-6.64165 c -1.6311,1.51124 -4.40781,2.11804 -3.8821,5.33203 0.89037,3.26292 2.34144,2.88132 3.9756,1.30962 z"
         id="path6741"
         sodipodi:nodetypes="cccc" /><path
         style="fill:url(#radialGradient6769);fill-opacity:1;stroke:none;stroke-width:0.529167;stroke-linecap:square;stroke-opacity:1"
         d="m 74.929012,151.26119 c 20.194612,7.01034 41.831398,7.45079 65.200398,0 l -23.50427,-18.9895 -1.30131,7.706 c -4.94771,1.64157 -9.94657,1.54434 -14.98242,0.18908 L 99.466973,132.272 Z"
         id="path6759"
         sodipodi:nodetypes="ccccccc" /><path
         style="fill:url(#radialGradient6777);fill-opacity:1;stroke:none;stroke-width:0.529167;stroke-linecap:square;stroke-opacity:1"
         d="m 87.651041,154.16106 11.820631,-21.88906 0.276245,8.43359 c 5.329443,0.58887 10.696703,0.64828 16.114303,0.003 l 0.81439,-8.43639 10.16951,22.07615 c -14.26452,3.33619 -27.038695,2.44976 -39.195079,-0.18709 z"
         id="path6761"
         sodipodi:nodetypes="cccccccc" /></g></g></svg>
